<svg width="627" height="545" viewBox="0 0 627 545" fill="none" xmlns="http://www.w3.org/2000/svg">
<g clip-path="url(#clip0)">
<path d="M399.476 544.809H207.895C193.861 544.809 178.509 526.173 180.983 512.132L266.328 69.3248C268.802 55.2645 282.181 43.9161 296.241 43.9161L481.203 39.3086C495.237 39.3086 511.225 55.2902 508.751 69.3248L429.37 519.4C426.896 533.428 413.51 544.809 399.476 544.809Z" fill="#20381C"/>
<path d="M391.506 534.289H202.188C188.32 534.289 179.054 523.05 181.502 509.182L259.9 64.4148C262.349 50.5473 275.573 39.3081 289.46 39.3081H478.785C492.659 39.3081 501.919 50.5473 499.47 64.4148L421.072 509.182C418.598 523.082 405.38 534.289 391.506 534.289Z" fill="#264427"/>
<path d="M416.027 57.0062H347.011C346.68 57.0178 346.351 56.9531 346.05 56.8171C345.748 56.6812 345.482 56.4776 345.272 56.2221C345.062 55.9667 344.914 55.6663 344.839 55.3442C344.763 55.0222 344.763 54.6871 344.839 54.365C344.983 53.6396 345.368 52.9841 345.931 52.5047C346.495 52.0254 347.203 51.7502 347.942 51.7239H416.958C417.289 51.7126 417.618 51.7774 417.92 51.9133C418.221 52.0493 418.488 52.2527 418.698 52.5079C418.909 52.7632 419.058 53.0634 419.134 53.3854C419.21 53.7074 419.211 54.0426 419.137 54.365C418.991 55.091 418.605 55.7467 418.041 56.226C417.476 56.7052 416.767 56.9801 416.027 57.0062Z" fill="#203E2A"/>
<path d="M476.708 47.5527H455.225C448.999 47.5527 443.106 52.353 442.065 58.2778C441.017 64.2027 435.125 69.0094 428.898 69.0094H328.876C322.649 69.0094 318.453 64.2027 319.494 58.2778C320.542 52.353 316.345 47.5527 310.118 47.5527H288.636C279.209 47.5527 270.283 54.827 268.715 63.8043L190.073 509.773C188.492 518.77 194.854 526.025 204.281 526.025H392.34C401.767 526.025 410.693 518.75 412.261 509.773L490.897 63.8043C492.497 54.8335 486.135 47.5527 476.708 47.5527Z" fill="#203E2A"/>
<path style="mix-blend-mode:overlay" d="M465.252 38.1133H443.789C437.568 38.1133 431.676 42.92 430.628 48.8448C429.581 54.7696 423.688 59.5699 417.467 59.5699H317.452C311.232 59.5699 307.029 54.7696 308.077 48.8448C309.118 42.92 304.921 38.1133 298.701 38.1133H277.199C267.772 38.1133 258.846 45.3876 257.278 54.3648L178.649 500.347C177.062 509.343 183.424 516.598 192.851 516.598H380.903C390.33 516.598 399.256 509.324 400.824 500.347L479.466 54.3777C481.06 45.3876 474.698 38.1133 465.252 38.1133Z" fill="url(#paint0_linear)"/>
<g style="mix-blend-mode:overlay">
<g style="mix-blend-mode:overlay">
<path d="M105.336 416.809L101.73 437.25" stroke="white" stroke-width="0.351844" stroke-miterlimit="10"/>
</g>
<g style="mix-blend-mode:overlay">
<path d="M104.664 420.611L102.402 433.444" stroke="white" stroke-width="2.11724" stroke-miterlimit="10"/>
</g>
<g style="mix-blend-mode:overlay">
<path d="M112.799 424.938L105.551 466.051" stroke="white" stroke-width="0.265426" stroke-miterlimit="10"/>
</g>
<g style="mix-blend-mode:overlay">
<path d="M111.665 431.41L106.312 461.747" stroke="white" stroke-width="2.11724" stroke-miterlimit="10"/>
</g>
<g style="mix-blend-mode:overlay">
<path d="M128.818 384.595L121.942 423.601" stroke="white" stroke-width="0.265426" stroke-miterlimit="10"/>
</g>
<g style="mix-blend-mode:overlay">
<path d="M127.143 394.081L122.406 420.948" stroke="white" stroke-width="2.11724" stroke-miterlimit="10"/>
</g>
<g style="mix-blend-mode:overlay">
<path d="M139.527 374.345L134.946 400.326" stroke="white" stroke-width="0.265426" stroke-miterlimit="10"/>
</g>
<g style="mix-blend-mode:overlay">
<path d="M139.531 374.345L135.637 396.419" stroke="white" stroke-width="2.11724" stroke-miterlimit="10"/>
</g>
<g style="mix-blend-mode:overlay">
<path d="M149.667 367.314L145.406 391.444" stroke="white" stroke-width="0.265426" stroke-miterlimit="10"/>
</g>
<g style="mix-blend-mode:overlay">
<path d="M149.262 369.59L147 382.423" stroke="white" stroke-width="2.11724" stroke-miterlimit="10"/>
</g>
<g style="mix-blend-mode:overlay">
<path d="M156.377 379.723L152.772 400.164" stroke="white" stroke-width="0.265426" stroke-miterlimit="10"/>
</g>
<g style="mix-blend-mode:overlay">
<path d="M155.981 382L153.719 394.839" stroke="white" stroke-width="2.11724" stroke-miterlimit="10"/>
</g>
<g style="mix-blend-mode:overlay">
<path d="M163.888 387.613L161.812 399.367" stroke="white" stroke-width="0.265426" stroke-miterlimit="10"/>
</g>
<g style="mix-blend-mode:overlay">
<path d="M163.434 390.172L161.609 400.544" stroke="white" stroke-width="2.11724" stroke-miterlimit="10"/>
</g>
<g style="mix-blend-mode:overlay">
<path d="M170.619 399.933L166.41 423.793" stroke="white" stroke-width="0.265426" stroke-miterlimit="10"/>
</g>
<g style="mix-blend-mode:overlay">
<path d="M170.011 403.355L167.164 419.504" stroke="white" stroke-width="2.11724" stroke-miterlimit="10"/>
</g>
<g style="mix-blend-mode:overlay">
<path d="M176.177 418.891L173.703 432.912" stroke="white" stroke-width="0.265426" stroke-miterlimit="10"/>
</g>
<g style="mix-blend-mode:overlay">
<path d="M175.574 422.309L174.507 428.356" stroke="white" stroke-width="2.11724" stroke-miterlimit="10"/>
</g>
<g style="mix-blend-mode:overlay">
<path d="M183.834 425.902L180.988 442.051" stroke="white" stroke-width="0.265426" stroke-miterlimit="10"/>
</g>
<g style="mix-blend-mode:overlay">
<path d="M183.607 427.227L182.707 432.322" stroke="white" stroke-width="2.11724" stroke-miterlimit="10"/>
</g>
<g style="mix-blend-mode:overlay">
<path d="M195.361 411.008L190.445 438.871" stroke="white" stroke-width="0.265426" stroke-miterlimit="10"/>
</g>
<g style="mix-blend-mode:overlay">
<path d="M195.143 412.26L190.445 438.87" stroke="white" stroke-width="2.11724" stroke-miterlimit="10"/>
</g>
<g style="mix-blend-mode:overlay">
<path d="M205.717 402.787L203.14 417.394" stroke="white" stroke-width="0.265426" stroke-miterlimit="10"/>
</g>
<g style="mix-blend-mode:overlay">
<path d="M206.074 400.75L203.812 413.589" stroke="white" stroke-width="2.11724" stroke-miterlimit="10"/>
</g>
<g style="mix-blend-mode:overlay">
<path d="M216.159 394.021L212.137 416.834" stroke="white" stroke-width="0.265426" stroke-miterlimit="10"/>
</g>
<g style="mix-blend-mode:overlay">
<path d="M215.129 399.869L212.559 414.424" stroke="white" stroke-width="2.11724" stroke-miterlimit="10"/>
</g>
<g style="mix-blend-mode:overlay">
<path d="M223.715 401.644L220.11 422.091" stroke="white" stroke-width="0.265426" stroke-miterlimit="10"/>
</g>
<g style="mix-blend-mode:overlay">
<path d="M223.418 403.363L221.156 416.196" stroke="white" stroke-width="2.11724" stroke-miterlimit="10"/>
</g>
<g style="mix-blend-mode:overlay">
<path d="M234.429 391.367L230.824 411.809" stroke="white" stroke-width="0.265426" stroke-miterlimit="10"/>
</g>
<g style="mix-blend-mode:overlay">
<path d="M233.883 394.473L231.621 407.312" stroke="white" stroke-width="2.11724" stroke-miterlimit="10"/>
</g>
<g style="mix-blend-mode:overlay">
<path d="M244.582 384.252L240.977 404.694" stroke="white" stroke-width="0.265426" stroke-miterlimit="10"/>
</g>
<g style="mix-blend-mode:overlay">
<path d="M243.124 392.518L242.321 397.086" stroke="white" stroke-width="2.11724" stroke-miterlimit="10"/>
</g>
<g style="mix-blend-mode:overlay">
<path d="M252.615 389.191L245.977 426.828" stroke="white" stroke-width="0.265426" stroke-miterlimit="10"/>
</g>
<g style="mix-blend-mode:overlay">
<path d="M251.632 394.769L247.886 416.02" stroke="white" stroke-width="2.11724" stroke-miterlimit="10"/>
</g>
<g style="mix-blend-mode:overlay">
<path d="M259.332 401.592L255.727 422.033" stroke="white" stroke-width="0.265426" stroke-miterlimit="10"/>
</g>
<g style="mix-blend-mode:overlay">
<path d="M259.328 401.592L257.066 414.425" stroke="white" stroke-width="2.11724" stroke-miterlimit="10"/>
</g>
<g style="mix-blend-mode:overlay">
<path d="M272.546 377.07L266.57 410.974" stroke="white" stroke-width="0.265426" stroke-miterlimit="10"/>
</g>
<g style="mix-blend-mode:overlay">
<path d="M271.336 383.953L267.242 407.171" stroke="white" stroke-width="2.11724" stroke-miterlimit="10"/>
</g>
<g style="mix-blend-mode:overlay">
<path d="M281.844 374.84L278.374 394.504" stroke="white" stroke-width="0.265426" stroke-miterlimit="10"/>
</g>
<g style="mix-blend-mode:overlay">
<path d="M281.097 379.057L278.835 391.889" stroke="white" stroke-width="2.11724" stroke-miterlimit="10"/>
</g>
<g style="mix-blend-mode:overlay">
<path d="M291.288 371.768L288.082 389.941" stroke="white" stroke-width="0.265426" stroke-miterlimit="10"/>
</g>
<g style="mix-blend-mode:overlay">
<path d="M290.832 374.346L288.57 387.185" stroke="white" stroke-width="2.11724" stroke-miterlimit="10"/>
</g>
<g style="mix-blend-mode:overlay">
<path d="M301.551 364.03L298.434 381.721" stroke="white" stroke-width="0.265426" stroke-miterlimit="10"/>
</g>
<g style="mix-blend-mode:overlay">
<path d="M300.404 370.541L299.254 377.07" stroke="white" stroke-width="2.11724" stroke-miterlimit="10"/>
</g>
<g style="mix-blend-mode:overlay">
<path d="M309.593 368.875L303.418 403.923" stroke="white" stroke-width="0.265426" stroke-miterlimit="10"/>
</g>
<g style="mix-blend-mode:overlay">
<path d="M307.531 380.596L304.762 396.314" stroke="white" stroke-width="2.11724" stroke-miterlimit="10"/>
</g>
<g style="mix-blend-mode:overlay">
<path d="M316.443 380.526L309.258 421.255" stroke="white" stroke-width="0.265426" stroke-miterlimit="10"/>
</g>
<g style="mix-blend-mode:overlay">
<path d="M315.027 388.529L310.773 412.678" stroke="white" stroke-width="2.11724" stroke-miterlimit="10"/>
</g>
<g style="mix-blend-mode:overlay">
<path d="M327.904 366.012L322.281 397.898" stroke="white" stroke-width="0.265426" stroke-miterlimit="10"/>
</g>
<g style="mix-blend-mode:overlay">
<path d="M325.546 379.41L323.625 390.289" stroke="white" stroke-width="2.11724" stroke-miterlimit="10"/>
</g>
<g style="mix-blend-mode:overlay">
<path d="M336.712 366.523L332.208 392.079" stroke="white" stroke-width="0.265426" stroke-miterlimit="10"/>
</g>
<g style="mix-blend-mode:overlay">
<path d="M335.814 371.641L334.914 376.736" stroke="white" stroke-width="2.11724" stroke-miterlimit="10"/>
</g>
<g style="mix-blend-mode:overlay">
<path d="M347.857 353.82L344.496 372.886" stroke="white" stroke-width="0.265426" stroke-miterlimit="10"/>
</g>
<g style="mix-blend-mode:overlay">
<path d="M347.466 356.051L345.551 366.892" stroke="white" stroke-width="2.11724" stroke-miterlimit="10"/>
</g>
<g style="mix-blend-mode:overlay">
<path d="M355.118 363.119L352.278 379.204" stroke="white" stroke-width="0.265426" stroke-miterlimit="10"/>
</g>
<g style="mix-blend-mode:overlay">
<path d="M354.524 366.465L352.262 379.304" stroke="white" stroke-width="2.11724" stroke-miterlimit="10"/>
</g>
<g style="mix-blend-mode:overlay">
<path d="M361.946 374.84L360.41 383.566" stroke="white" stroke-width="0.265426" stroke-miterlimit="10"/>
</g>
<g style="mix-blend-mode:overlay">
<path d="M361.093 379.678L360.289 384.234" stroke="white" stroke-width="2.11724" stroke-miterlimit="10"/>
</g>
<g style="mix-blend-mode:overlay">
<path d="M374.488 354.193L369.309 383.566" stroke="white" stroke-width="0.265426" stroke-miterlimit="10"/>
</g>
<g style="mix-blend-mode:overlay">
<path d="M373.847 357.818L370.653 375.959" stroke="white" stroke-width="2.11724" stroke-miterlimit="10"/>
</g>
</g>
<path opacity="0.3" d="M525.016 304.552H332.413C325.261 304.552 320.48 298.769 321.746 291.597L345.523 156.83C346.808 149.678 353.613 143.875 360.765 143.875H553.361C560.513 143.875 565.294 149.658 564.028 156.83L540.252 291.597C539.005 298.756 532.181 304.552 525.016 304.552Z" fill="#568E4C"/>
<path opacity="0.3" d="M508.376 291.931H315.768C308.609 291.931 303.828 286.148 305.094 278.976L328.87 144.209C330.155 137.05 336.954 131.254 344.113 131.254H536.709C543.861 131.254 548.642 137.037 547.382 144.209L523.606 278.976C522.353 286.129 515.528 291.931 508.376 291.931Z" fill="#568E4C"/>
<g style="mix-blend-mode:overlay">
<path d="M319.441 258.606C330.366 258.606 336.336 224.548 347.234 224.548C358.133 224.548 361.147 207.564 372.032 207.564C382.918 207.564 378.06 235.144 388.952 235.144C399.844 235.144 402.261 221.483 413.153 221.483C424.045 221.483 421.23 237.471 432.129 237.471C443.028 237.471 451.214 191.062 462.119 191.062C473.024 191.062 470.377 206.015 481.276 206.015C492.174 206.015 497.09 178.171 507.995 178.171C518.9 178.171 516.086 194.153 526.991 194.153" stroke="white" stroke-width="0.61727" stroke-linecap="round" stroke-linejoin="round"/>
</g>
<path style="mix-blend-mode:overlay" opacity="0.58" d="M282.181 231.556H129.073C121.921 231.556 117.14 225.773 118.406 218.602L135.756 120.122C137.042 112.963 143.84 107.161 150.999 107.161H304.119C311.272 107.161 316.053 112.944 314.793 120.122L297.443 218.602C296.164 225.76 289.34 231.556 282.181 231.556Z" fill="url(#paint1_linear)"/>
<path opacity="0.3" d="M265.531 218.935H112.456C105.297 218.935 100.516 213.151 101.782 205.974L119.133 107.494C120.418 100.335 127.217 94.5391 134.375 94.5391H287.47C294.629 94.5391 299.403 100.323 298.144 107.494L280.793 205.974C279.534 213.132 272.69 218.935 265.531 218.935Z" fill="#568E4C"/>
<g style="mix-blend-mode:overlay">
<g style="mix-blend-mode:overlay">
<path d="M115.48 199.409L121.347 166.135" stroke="#757575" stroke-width="1.28392" stroke-linecap="round" stroke-linejoin="round"/>
</g>
<g style="mix-blend-mode:overlay">
<path d="M132.557 199.409L142.685 141.967" stroke="#757575" stroke-width="1.28392" stroke-linecap="round" stroke-linejoin="round"/>
</g>
<g style="mix-blend-mode:overlay">
<path d="M149.648 199.409L154.403 172.414" stroke="#757575" stroke-width="1.28392" stroke-linecap="round" stroke-linejoin="round"/>
</g>
<g style="mix-blend-mode:overlay">
<path d="M166.726 199.409L180.304 122.406" stroke="#757575" stroke-width="1.28392" stroke-linecap="round" stroke-linejoin="round"/>
</g>
<g style="mix-blend-mode:overlay">
<path d="M183.815 199.409L193.551 144.164" stroke="#757575" stroke-width="1.28392" stroke-linecap="round" stroke-linejoin="round"/>
</g>
<g style="mix-blend-mode:overlay">
<path d="M200.898 199.41L206.765 166.136" stroke="#757575" stroke-width="1.28392" stroke-linecap="round" stroke-linejoin="round"/>
</g>
<g style="mix-blend-mode:overlay">
<path d="M217.98 199.41L231.256 124.078" stroke="#757575" stroke-width="1.28392" stroke-linecap="round" stroke-linejoin="round"/>
</g>
<g style="mix-blend-mode:overlay">
<path d="M235.062 199.409L244.804 144.164" stroke="#757575" stroke-width="1.28392" stroke-linecap="round" stroke-linejoin="round"/>
</g>
<g style="mix-blend-mode:overlay">
<path d="M252.144 199.409L260.485 152.12" stroke="#757575" stroke-width="1.28392" stroke-linecap="round" stroke-linejoin="round"/>
</g>
<g style="mix-blend-mode:overlay">
<path d="M269.234 199.41L275.101 166.136" stroke="#757575" stroke-width="1.28392" stroke-linecap="round" stroke-linejoin="round"/>
</g>
</g>
<g style="mix-blend-mode:overlay">
<g style="mix-blend-mode:overlay">
<path d="M115.48 199.409L120.3 172.079" stroke="white" stroke-width="1.28392" stroke-linecap="round" stroke-linejoin="round"/>
</g>
<g style="mix-blend-mode:overlay">
<path d="M132.557 199.41L140.879 152.229" stroke="white" stroke-width="1.28392" stroke-linecap="round" stroke-linejoin="round"/>
</g>
<g style="mix-blend-mode:overlay">
<path d="M149.648 199.405L153.555 177.229" stroke="white" stroke-width="1.28392" stroke-linecap="round" stroke-linejoin="round"/>
</g>
<g style="mix-blend-mode:overlay">
<path d="M166.726 199.409L177.882 136.157" stroke="white" stroke-width="1.28392" stroke-linecap="round" stroke-linejoin="round"/>
</g>
<g style="mix-blend-mode:overlay">
<path d="M183.815 199.41L191.816 154.029" stroke="white" stroke-width="1.28392" stroke-linecap="round" stroke-linejoin="round"/>
</g>
<g style="mix-blend-mode:overlay">
<path d="M200.898 199.409L205.717 172.079" stroke="white" stroke-width="1.28392" stroke-linecap="round" stroke-linejoin="round"/>
</g>
<g style="mix-blend-mode:overlay">
<path d="M217.98 199.41L228.885 137.534" stroke="white" stroke-width="1.28392" stroke-linecap="round" stroke-linejoin="round"/>
</g>
<g style="mix-blend-mode:overlay">
<path d="M235.062 199.41L243.063 154.029" stroke="white" stroke-width="1.28392" stroke-linecap="round" stroke-linejoin="round"/>
</g>
<g style="mix-blend-mode:overlay">
<path d="M252.144 199.409L258.994 160.563" stroke="white" stroke-width="1.28392" stroke-linecap="round" stroke-linejoin="round"/>
</g>
<g style="mix-blend-mode:overlay">
<path d="M269.234 199.409L274.053 172.079" stroke="white" stroke-width="1.28392" stroke-linecap="round" stroke-linejoin="round"/>
</g>
</g>
<g filter="url(#filter0_bi)">
<path d="M221.965 59.2372C221.038 64.4945 216.471 68.3274 211.132 68.3274H186.195C179.356 68.3274 174.174 62.1528 175.362 55.4176L179.818 30.141C180.745 24.8837 185.313 21.0508 190.651 21.0508H215.588C222.427 21.0508 227.609 27.2254 226.421 33.9606L221.965 59.2372Z" fill="#36FFE7" fill-opacity="0.4"/>
</g>
<path d="M206.769 41.4306C207.043 41.504 207.335 41.4656 207.581 41.3236C207.827 41.1817 208.006 40.948 208.08 40.6738L208.308 39.8198C208.677 38.4341 208.492 36.9595 207.795 35.7069C207.097 34.4543 205.94 33.5215 204.568 33.105L205.127 31.0195C205.2 30.7453 205.162 30.4532 205.02 30.2074C204.878 29.9616 204.644 29.7823 204.37 29.7088C204.096 29.6354 203.804 29.6738 203.558 29.8157C203.312 29.9576 203.133 30.1914 203.06 30.4655L202.501 32.5511C201.264 32.2616 199.966 32.4068 198.823 32.9623C197.681 33.5178 196.765 34.4496 196.23 35.6011C195.694 36.7525 195.571 38.0534 195.882 39.2848C196.192 40.5162 196.918 41.6031 197.936 42.3626L202.321 45.6449C202.953 46.1177 203.401 46.7959 203.587 47.5629C203.773 48.33 203.687 49.1379 203.342 49.8479C202.997 50.5579 202.416 51.1257 201.698 51.4536C200.98 51.7816 200.17 51.8493 199.408 51.6451L197.7 51.1874C196.83 50.9533 196.089 50.3839 195.639 49.6041C195.188 48.8243 195.066 47.8977 195.298 47.0276L195.527 46.1736C195.6 45.8994 195.562 45.6073 195.42 45.3615C195.278 45.1157 195.044 44.9364 194.77 44.8629C194.496 44.7895 194.204 44.8279 193.958 44.9698C193.712 45.1117 193.533 45.3455 193.459 45.6196L193.231 46.4737C192.862 47.8594 193.047 49.334 193.744 50.5866C194.442 51.8392 195.599 52.772 196.971 53.1884L196.412 55.274C196.339 55.5481 196.377 55.8402 196.519 56.086C196.661 56.3318 196.895 56.5112 197.169 56.5847C197.443 56.6581 197.735 56.6197 197.981 56.4777C198.227 56.3358 198.406 56.1021 198.479 55.8279L199.038 53.7424C200.275 54.0318 201.573 53.8866 202.715 53.3312C203.858 52.7757 204.774 51.8439 205.309 50.6924C205.845 49.5409 205.968 48.2401 205.657 47.0087C205.347 45.7773 204.621 44.6904 203.603 43.9309L199.218 40.6486C198.586 40.1757 198.138 39.4975 197.952 38.7305C197.766 37.9635 197.852 37.1556 198.197 36.4456C198.542 35.7356 199.123 35.1678 199.841 34.8398C200.559 34.5119 201.369 34.4442 202.131 34.6484L203.839 35.1061C204.709 35.3401 205.45 35.9095 205.9 36.6894C206.351 37.4692 206.473 38.3958 206.241 39.2659L206.012 40.1199C205.939 40.394 205.977 40.6861 206.119 40.9319C206.261 41.1777 206.495 41.3571 206.769 41.4306Z" fill="#050505"/>
<path d="M31.8113 517.247H16.5623L19.2484 501.998H34.4974L31.8113 517.247Z" fill="#F2DA7C"/>
<path d="M53.9975 517.247H38.7549L41.441 501.998H56.6836L53.9975 517.247Z" fill="#F2DA7C"/>
<path d="M76.1819 517.247H60.9329L63.619 501.998H78.868L76.1819 517.247Z" fill="#F2DA7C"/>
<g filter="url(#filter1_bi)">
<path d="M517.759 452.048H481.824L488.16 416.107H524.095L517.759 452.048Z" fill="#36FFE7" fill-opacity="0.4"/>
</g>
<path d="M508.645 432.711C508.865 432.77 509.099 432.739 509.295 432.626C509.492 432.512 509.636 432.325 509.694 432.106L509.878 431.422C510.172 430.313 510.025 429.133 509.466 428.131C508.908 427.128 507.982 426.381 506.884 426.048L507.331 424.379C507.39 424.16 507.359 423.926 507.246 423.729C507.132 423.532 506.945 423.389 506.726 423.33C506.506 423.271 506.273 423.302 506.076 423.416C505.879 423.529 505.736 423.716 505.677 423.936L505.229 425.605C504.24 425.373 503.201 425.489 502.287 425.934C501.373 426.378 500.639 427.124 500.211 428.046C499.782 428.967 499.684 430.008 499.932 430.994C500.181 431.98 500.761 432.849 501.576 433.457L505.086 436.084C505.592 436.463 505.95 437.005 506.099 437.619C506.248 438.233 506.179 438.88 505.903 439.448C505.627 440.016 505.162 440.471 504.587 440.733C504.012 440.995 503.364 441.05 502.754 440.886L501.387 440.52C500.691 440.333 500.098 439.877 499.738 439.253C499.377 438.629 499.279 437.887 499.465 437.191L499.648 436.507C499.707 436.288 499.676 436.054 499.563 435.857C499.449 435.661 499.262 435.517 499.043 435.458C498.823 435.4 498.589 435.43 498.393 435.544C498.196 435.657 498.052 435.844 497.994 436.064L497.81 436.747C497.516 437.856 497.663 439.037 498.222 440.039C498.78 441.042 499.706 441.788 500.804 442.121L500.357 443.791C500.298 444.01 500.329 444.244 500.442 444.44C500.556 444.637 500.743 444.781 500.962 444.839C501.182 444.898 501.415 444.868 501.612 444.754C501.809 444.64 501.952 444.453 502.011 444.234L502.458 442.565C503.448 442.796 504.487 442.68 505.401 442.236C506.315 441.791 507.049 441.045 507.477 440.124C507.906 439.202 508.004 438.161 507.756 437.176C507.507 436.19 506.927 435.32 506.112 434.712L502.602 432.085C502.096 431.707 501.738 431.164 501.589 430.55C501.44 429.937 501.509 429.29 501.785 428.722C502.061 428.153 502.526 427.699 503.101 427.437C503.676 427.174 504.324 427.12 504.934 427.283L506.301 427.65C506.997 427.837 507.59 428.293 507.95 428.917C508.311 429.541 508.409 430.283 508.223 430.979L508.04 431.662C507.981 431.882 508.012 432.116 508.125 432.312C508.239 432.509 508.426 432.653 508.645 432.711Z" fill="#050505"/>
<g filter="url(#filter2_bi)">
<path d="M561.364 102.92H533.687L541.309 59.7173H568.979L561.364 102.92Z" fill="#36FFE7" fill-opacity="0.4"/>
</g>
<g filter="url(#filter3_bi)">
<path d="M559.728 33.7363L529.121 65.5068H579.129L559.728 33.7363Z" fill="#36FFE7" fill-opacity="0.4"/>
</g>
<path d="M610.543 273.543H624.712L620.111 299.64H605.942L610.543 273.543Z" fill="#F2DA7C"/>
<path d="M610.257 315.333L626.444 296.145H600.836L610.257 315.333Z" fill="#F2DA7C"/>
<g filter="url(#filter4_bi)">
<path d="M54.4454 374.114H34.5117L40.9828 337.409H60.9229L54.4454 374.114Z" fill="#36FFE7" fill-opacity="0.4"/>
</g>
<g filter="url(#filter5_bi)">
<path d="M54.8496 315.336L32.082 342.325H68.1001L54.8496 315.336Z" fill="#36FFE7" fill-opacity="0.4"/>
</g>
<path d="M571.782 356.126H568.144C567.719 356.135 567.307 355.98 566.993 355.693C566.679 355.406 566.489 355.008 566.461 354.584C566.31 353.107 565.964 351.658 565.433 350.272C565.305 349.816 565.318 349.332 565.468 348.884C565.618 348.435 565.899 348.041 566.274 347.753L569.198 345.273C569.645 344.946 569.949 344.459 570.045 343.914C570.141 343.369 570.021 342.808 569.712 342.349L567.675 339.875C567.287 339.487 566.762 339.27 566.213 339.27C565.665 339.27 565.139 339.487 564.751 339.875L561.834 342.362C561.497 342.682 561.07 342.892 560.611 342.963C560.152 343.034 559.682 342.963 559.264 342.76C558.021 341.986 556.678 341.385 555.273 340.973C554.866 340.864 554.515 340.604 554.292 340.246C554.069 339.889 553.99 339.459 554.071 339.046L554.714 335.409C554.772 335.156 554.772 334.894 554.712 334.642C554.653 334.39 554.537 334.154 554.372 333.955C554.208 333.755 553.999 333.595 553.763 333.488C553.527 333.382 553.27 333.331 553.011 333.339H549.496C548.917 333.36 548.362 333.576 547.921 333.951C547.481 334.327 547.179 334.84 547.067 335.409L546.424 339.046C546.319 339.511 546.087 339.937 545.753 340.278C545.419 340.618 544.998 340.859 544.535 340.973C542.934 341.404 541.383 342.002 539.908 342.76C539.517 342.982 539.061 343.064 538.617 342.991C538.173 342.919 537.767 342.696 537.466 342.362L535.416 339.875C535.225 339.683 534.997 339.531 534.747 339.427C534.497 339.324 534.229 339.27 533.958 339.27C533.687 339.27 533.419 339.324 533.168 339.427C532.918 339.531 532.691 339.683 532.499 339.875L529.588 342.349C529.139 342.674 528.835 343.161 528.739 343.707C528.643 344.252 528.763 344.814 529.074 345.273L531.117 347.753C531.39 348.118 531.534 348.564 531.526 349.02C531.518 349.476 531.358 349.917 531.072 350.272C530.066 351.615 529.205 353.06 528.502 354.584C528.311 355.023 528.001 355.4 527.607 355.673C527.213 355.945 526.751 356.102 526.272 356.126H522.635C522.057 356.147 521.503 356.361 521.062 356.736C520.621 357.11 520.32 357.622 520.206 358.189L519.563 361.685C519.505 361.937 519.506 362.199 519.565 362.452C519.624 362.704 519.741 362.939 519.905 363.139C520.07 363.339 520.278 363.498 520.514 363.605C520.75 363.711 521.007 363.762 521.266 363.754H524.903C525.329 363.745 525.741 363.9 526.055 364.187C526.368 364.474 526.559 364.872 526.587 365.296C526.734 366.773 527.077 368.223 527.609 369.608C527.74 370.062 527.73 370.545 527.581 370.994C527.432 371.442 527.15 371.835 526.773 372.121L523.901 374.64C523.452 374.965 523.148 375.452 523.052 375.997C522.956 376.543 523.076 377.105 523.387 377.563L525.424 380.031C525.615 380.224 525.842 380.378 526.092 380.482C526.343 380.587 526.611 380.641 526.883 380.641C527.154 380.641 527.423 380.587 527.673 380.482C527.923 380.378 528.151 380.224 528.341 380.031L531.265 377.551C531.601 377.228 532.027 377.016 532.487 376.945C532.947 376.874 533.418 376.946 533.836 377.152C535.077 377.928 536.42 378.53 537.826 378.939C538.233 379.048 538.584 379.308 538.807 379.666C539.03 380.023 539.109 380.453 539.028 380.866L538.385 384.504C538.327 384.756 538.328 385.018 538.387 385.27C538.446 385.523 538.562 385.758 538.727 385.958C538.892 386.158 539.1 386.317 539.336 386.424C539.572 386.53 539.829 386.581 540.088 386.573H543.584C544.163 386.552 544.718 386.336 545.158 385.961C545.599 385.585 545.9 385.072 546.013 384.504L546.656 380.866C546.761 380.402 546.993 379.975 547.327 379.635C547.66 379.294 548.082 379.053 548.545 378.939C550.144 378.51 551.693 377.911 553.165 377.152C553.557 376.927 554.014 376.844 554.46 376.917C554.906 376.989 555.313 377.213 555.614 377.551L557.657 380.031C557.848 380.224 558.076 380.378 558.327 380.483C558.578 380.587 558.847 380.641 559.119 380.641C559.391 380.641 559.66 380.587 559.911 380.483C560.162 380.378 560.39 380.224 560.581 380.031L563.492 377.563C563.938 377.236 564.24 376.749 564.336 376.205C564.432 375.66 564.314 375.099 564.006 374.64L561.962 372.153C561.688 371.789 561.543 371.344 561.551 370.889C561.56 370.433 561.72 369.994 562.007 369.64C563.011 368.295 563.872 366.85 564.578 365.328C564.768 364.89 565.077 364.513 565.47 364.241C565.863 363.968 566.324 363.811 566.801 363.786H570.438C571.018 363.767 571.575 363.552 572.017 363.176C572.459 362.8 572.761 362.286 572.874 361.717L573.517 358.221C573.58 357.964 573.583 357.696 573.524 357.438C573.465 357.18 573.347 356.939 573.178 356.736C573.009 356.532 572.795 356.37 572.552 356.265C572.31 356.159 572.046 356.111 571.782 356.126ZM544.406 372.101C537.685 372.101 533.206 366.658 534.388 359.937C535.571 353.215 541.971 347.779 548.693 347.779C555.414 347.779 559.893 353.215 558.711 359.937C557.529 366.658 551.128 372.101 544.406 372.101Z" fill="#F2DA7C"/>
<path d="M523.034 334.296H521.678C521.518 334.297 521.364 334.238 521.245 334.131C521.126 334.025 521.051 333.877 521.035 333.718C520.975 333.17 520.846 332.633 520.65 332.118C520.602 331.948 520.607 331.768 520.663 331.6C520.719 331.433 520.824 331.287 520.965 331.18L522.051 330.248C522.218 330.128 522.332 329.947 522.368 329.744C522.404 329.541 522.359 329.332 522.244 329.162L521.485 328.243C521.414 328.171 521.33 328.114 521.236 328.076C521.143 328.037 521.043 328.017 520.942 328.017C520.841 328.017 520.741 328.037 520.648 328.076C520.555 328.114 520.47 328.171 520.399 328.243L519.307 329.168C519.18 329.288 519.02 329.367 518.848 329.393C518.676 329.42 518.499 329.393 518.343 329.316C517.877 329.036 517.376 328.82 516.852 328.674C516.702 328.627 516.575 328.528 516.493 328.394C516.411 328.261 516.381 328.102 516.409 327.947L516.646 326.592C516.666 326.497 516.664 326.4 516.64 326.306C516.616 326.213 516.572 326.126 516.511 326.052C516.449 325.977 516.371 325.918 516.284 325.878C516.196 325.838 516.1 325.818 516.004 325.82H514.719C514.502 325.828 514.294 325.908 514.128 326.048C513.963 326.188 513.849 326.379 513.806 326.592L513.568 327.947C513.531 328.122 513.445 328.282 513.322 328.41C513.198 328.539 513.041 328.63 512.868 328.674C512.273 328.826 511.695 329.041 511.146 329.316C510.999 329.398 510.829 329.428 510.664 329.401C510.498 329.374 510.346 329.292 510.233 329.168L509.468 328.243C509.397 328.171 509.312 328.114 509.218 328.075C509.124 328.036 509.024 328.016 508.922 328.016C508.821 328.016 508.72 328.036 508.627 328.075C508.533 328.114 508.448 328.171 508.376 328.243L507.296 329.162C507.129 329.282 507.015 329.463 506.979 329.666C506.943 329.869 506.988 330.078 507.104 330.248L507.868 331.18C507.972 331.314 508.027 331.479 508.027 331.649C508.027 331.818 507.972 331.983 507.868 332.118C507.495 332.616 507.177 333.152 506.917 333.718C506.847 333.882 506.732 334.023 506.585 334.126C506.439 334.228 506.267 334.287 506.088 334.296H504.732C504.517 334.305 504.311 334.386 504.146 334.525C503.982 334.665 503.869 334.856 503.826 335.068L503.595 336.353C503.576 336.447 503.578 336.545 503.601 336.638C503.625 336.732 503.669 336.819 503.731 336.893C503.793 336.967 503.87 337.026 503.958 337.066C504.046 337.106 504.141 337.126 504.238 337.124H505.594C505.752 337.123 505.906 337.181 506.025 337.286C506.143 337.392 506.219 337.538 506.236 337.696C506.291 338.246 506.418 338.786 506.615 339.302C506.664 339.472 506.66 339.653 506.603 339.82C506.547 339.988 506.442 340.134 506.3 340.24L505.214 341.166C505.047 341.287 504.933 341.469 504.897 341.673C504.861 341.877 504.906 342.087 505.022 342.258L505.78 343.177C505.852 343.249 505.937 343.306 506.03 343.345C506.124 343.384 506.225 343.404 506.326 343.404C506.428 343.404 506.528 343.384 506.622 343.345C506.716 343.306 506.801 343.249 506.872 343.177L507.958 342.252C508.083 342.129 508.244 342.049 508.417 342.023C508.589 341.996 508.766 342.025 508.922 342.104C509.388 342.385 509.889 342.601 510.413 342.747C510.563 342.793 510.691 342.892 510.772 343.026C510.854 343.16 510.884 343.319 510.857 343.473L510.619 344.829C510.599 344.923 510.602 345.021 510.625 345.114C510.649 345.208 510.693 345.295 510.755 345.369C510.816 345.443 510.894 345.502 510.982 345.542C511.069 345.582 511.165 345.602 511.261 345.6H512.547C512.762 345.591 512.969 345.511 513.133 345.371C513.297 345.231 513.41 345.04 513.453 344.829L513.69 343.473C513.727 343.298 513.813 343.138 513.936 343.009C514.06 342.881 514.218 342.79 514.391 342.747C514.988 342.593 515.567 342.378 516.119 342.104C516.265 342.02 516.436 341.989 516.602 342.016C516.768 342.043 516.92 342.126 517.032 342.252L517.79 343.177C517.862 343.249 517.947 343.306 518.041 343.345C518.135 343.384 518.235 343.404 518.336 343.404C518.438 343.404 518.538 343.384 518.632 343.345C518.726 343.306 518.811 343.249 518.883 343.177L519.962 342.258C520.13 342.137 520.244 341.955 520.28 341.751C520.316 341.547 520.271 341.337 520.155 341.166L519.397 340.24C519.293 340.106 519.236 339.941 519.236 339.771C519.236 339.602 519.293 339.436 519.397 339.302C519.77 338.802 520.089 338.263 520.348 337.696C520.419 337.532 520.534 337.392 520.68 337.291C520.827 337.19 520.999 337.132 521.177 337.124H522.533C522.748 337.115 522.955 337.035 523.119 336.895C523.283 336.755 523.396 336.564 523.439 336.353L523.67 335.068C523.689 334.974 523.687 334.877 523.664 334.784C523.641 334.691 523.597 334.604 523.536 334.53C523.475 334.456 523.398 334.397 523.312 334.356C523.225 334.316 523.13 334.295 523.034 334.296ZM512.804 340.253C512.236 340.273 511.671 340.162 511.153 339.928C510.636 339.695 510.178 339.345 509.817 338.906C509.456 338.468 509.201 337.952 509.072 337.399C508.942 336.845 508.942 336.27 509.07 335.717C509.325 334.477 509.99 333.359 510.957 332.543C511.925 331.727 513.139 331.26 514.404 331.218C514.968 331.199 515.529 331.309 516.044 331.54C516.559 331.771 517.014 332.117 517.374 332.551C517.735 332.986 517.991 333.497 518.123 334.045C518.256 334.594 518.26 335.166 518.137 335.717C517.889 336.963 517.227 338.089 516.259 338.912C515.291 339.736 514.074 340.208 512.804 340.253Z" fill="#F2DA7C"/>
<path d="M513.797 362.975H511.869C511.641 362.978 511.421 362.894 511.253 362.74C511.086 362.586 510.984 362.373 510.969 362.146C510.89 361.356 510.706 360.58 510.423 359.839C510.357 359.594 510.364 359.336 510.444 359.096C510.524 358.856 510.674 358.645 510.873 358.489L512.435 357.159C512.676 356.987 512.841 356.727 512.892 356.435C512.944 356.143 512.879 355.842 512.711 355.597L511.625 354.274C511.523 354.169 511.401 354.087 511.266 354.03C511.131 353.974 510.987 353.945 510.841 353.945C510.695 353.945 510.55 353.974 510.416 354.03C510.281 354.087 510.159 354.169 510.057 354.274L508.489 355.604C508.309 355.777 508.079 355.891 507.832 355.929C507.584 355.967 507.331 355.927 507.107 355.816C506.441 355.401 505.721 355.078 504.967 354.858C504.746 354.801 504.555 354.659 504.435 354.464C504.316 354.269 504.276 354.035 504.325 353.811L504.665 351.883C504.697 351.749 504.697 351.609 504.666 351.474C504.635 351.339 504.573 351.214 504.485 351.107C504.398 351 504.287 350.914 504.161 350.857C504.035 350.8 503.898 350.773 503.759 350.778H501.877C501.57 350.793 501.277 350.91 501.044 351.11C500.812 351.31 500.652 351.582 500.591 351.883L500.251 353.811C500.197 354.062 500.073 354.293 499.895 354.478C499.717 354.663 499.491 354.795 499.242 354.858C498.383 355.089 497.552 355.41 496.761 355.816C496.554 355.929 496.315 355.969 496.082 355.93C495.85 355.892 495.636 355.777 495.476 355.604L494.384 354.274C494.281 354.169 494.159 354.087 494.025 354.03C493.89 353.974 493.746 353.945 493.6 353.945C493.454 353.945 493.309 353.974 493.175 354.03C493.04 354.087 492.918 354.169 492.816 354.274L491.261 355.597C491.02 355.771 490.857 356.03 490.806 356.322C490.754 356.614 490.818 356.914 490.984 357.159L492.077 358.489C492.228 358.682 492.31 358.919 492.31 359.164C492.31 359.409 492.228 359.646 492.077 359.839C491.547 360.56 491.091 361.333 490.714 362.146C490.614 362.381 490.449 362.584 490.239 362.73C490.029 362.877 489.782 362.961 489.526 362.975H487.598C487.291 362.989 486.998 363.105 486.765 363.306C486.532 363.506 486.373 363.778 486.313 364.08L485.985 365.956C485.953 366.091 485.953 366.231 485.984 366.365C486.015 366.5 486.077 366.626 486.165 366.733C486.252 366.84 486.364 366.925 486.489 366.982C486.615 367.039 486.753 367.066 486.891 367.062H488.819C489.045 367.058 489.265 367.141 489.432 367.294C489.6 367.447 489.702 367.658 489.718 367.884C489.798 368.676 489.982 369.454 490.265 370.197C490.335 370.441 490.329 370.699 490.249 370.939C490.169 371.179 490.017 371.389 489.815 371.54L488.253 372.871C488.013 373.045 487.849 373.306 487.798 373.599C487.746 373.891 487.81 374.193 487.977 374.439L489.069 375.762C489.172 375.866 489.293 375.947 489.427 376.003C489.561 376.059 489.705 376.088 489.85 376.088C489.995 376.088 490.139 376.059 490.273 376.003C490.407 375.947 490.529 375.866 490.631 375.762L492.199 374.432C492.379 374.259 492.609 374.145 492.856 374.107C493.103 374.07 493.356 374.109 493.58 374.22C494.248 374.633 494.968 374.955 495.72 375.178C495.942 375.235 496.133 375.377 496.253 375.572C496.372 375.767 496.412 376.001 496.363 376.225L496.022 378.153C495.991 378.287 495.99 378.427 496.022 378.562C496.053 378.697 496.115 378.822 496.202 378.929C496.29 379.036 496.401 379.122 496.527 379.179C496.653 379.236 496.79 379.263 496.928 379.258H498.805C499.111 379.243 499.404 379.126 499.637 378.926C499.87 378.726 500.029 378.454 500.09 378.153L500.431 376.225C500.485 375.974 500.608 375.743 500.786 375.558C500.964 375.373 501.191 375.241 501.44 375.178C502.297 374.945 503.128 374.624 503.92 374.22C504.127 374.107 504.366 374.067 504.599 374.106C504.832 374.144 505.045 374.259 505.205 374.432L506.298 375.762C506.506 375.97 506.788 376.086 507.082 376.086C507.375 376.086 507.657 375.97 507.866 375.762L509.421 374.439C509.661 374.264 509.825 374.003 509.876 373.711C509.928 373.418 509.864 373.117 509.697 372.871L508.605 371.54C508.453 371.35 508.37 371.113 508.37 370.869C508.37 370.625 508.453 370.388 508.605 370.197C509.137 369.475 509.593 368.7 509.967 367.884C510.069 367.65 510.235 367.449 510.445 367.304C510.655 367.159 510.901 367.075 511.156 367.062H513.084C513.39 367.047 513.684 366.931 513.917 366.73C514.15 366.53 514.309 366.258 514.369 365.956L514.697 364.08C514.728 363.946 514.728 363.806 514.698 363.672C514.667 363.538 514.605 363.413 514.519 363.306C514.432 363.199 514.321 363.114 514.196 363.056C514.071 362.999 513.935 362.971 513.797 362.975ZM499.133 371.528C495.534 371.528 493.131 368.617 493.767 365.018C494.124 363.228 495.075 361.612 496.465 360.429C497.855 359.247 499.603 358.568 501.427 358.502C505.032 358.502 507.429 361.419 506.792 365.018C506.435 366.807 505.484 368.423 504.094 369.604C502.704 370.785 500.956 371.463 499.133 371.528Z" fill="#F2DA7C"/>
<path d="M128.043 291.159H116.328L118.764 277.355H130.472L128.043 291.159Z" fill="#F2DA7C"/>
<path d="M145.105 291.159H133.391L137.439 268.205H149.154L145.105 291.159Z" fill="#F2DA7C"/>
<path d="M162.16 291.159H150.445L157.179 252.976H168.894L162.16 291.159Z" fill="#F2DA7C"/>
<path d="M179.226 291.158H167.512L176.007 242.982H187.722L179.226 291.158Z" fill="#F2DA7C"/>
<path d="M462.84 15.2491H447.597L450.283 0H465.532L462.84 15.2491Z" fill="#F2DA7C"/>
<path d="M485.026 15.2491H469.777L472.47 0H487.713L485.026 15.2491Z" fill="#F2DA7C"/>
<path d="M507.215 15.2491H491.973L494.659 0H509.908L507.215 15.2491Z" fill="#F2DA7C"/>
<g filter="url(#filter6_bi)">
<path d="M54.8798 146.183C56.1574 146.183 57.1932 145.148 57.1932 143.87C57.1932 142.592 56.1574 141.557 54.8798 141.557C53.6021 141.557 52.5664 142.592 52.5664 143.87C52.5664 145.148 53.6021 146.183 54.8798 146.183Z" fill="#36FFE7" fill-opacity="0.4"/>
</g>
<path d="M135.696 55.392C135.696 55.8498 135.561 56.2973 135.306 56.6779C135.052 57.0585 134.69 57.355 134.267 57.5299C133.844 57.7048 133.378 57.7502 132.929 57.6605C132.48 57.5707 132.068 57.3497 131.745 57.0255C131.422 56.7014 131.202 56.2885 131.113 55.8394C131.025 55.3902 131.071 54.9249 131.248 54.5023C131.424 54.0797 131.721 53.7188 132.102 53.4654C132.484 53.2119 132.932 53.0774 133.389 53.0786C133.693 53.0786 133.993 53.1385 134.274 53.2548C134.554 53.3712 134.809 53.5417 135.023 53.7566C135.237 53.9715 135.407 54.2266 135.523 54.5072C135.638 54.7878 135.697 55.0885 135.696 55.392Z" fill="#F2DA7C"/>
<path d="M145.407 520.421C146.684 520.421 147.72 519.385 147.72 518.107C147.72 516.83 146.684 515.794 145.407 515.794C144.129 515.794 143.093 516.83 143.093 518.107C143.093 519.385 144.129 520.421 145.407 520.421Z" fill="#F2DA7C"/>
<path d="M90.7059 258.604C90.7071 259.062 90.5725 259.51 90.3191 259.891C90.0657 260.272 89.7048 260.57 89.2822 260.746C88.8596 260.922 88.3943 260.969 87.9451 260.88C87.4959 260.791 87.0831 260.572 86.7589 260.248C86.4348 259.925 86.2138 259.513 86.124 259.064C86.0342 258.615 86.0797 258.15 86.2546 257.726C86.4295 257.303 86.726 256.942 87.1066 256.687C87.4871 256.433 87.9347 256.297 88.3925 256.297C89.0049 256.297 89.5924 256.54 90.026 256.972C90.4597 257.405 90.7042 257.991 90.7059 258.604Z" fill="#F2DA7C"/>
<path d="M592.376 255.289C593.654 255.289 594.689 254.253 594.689 252.975C594.689 251.698 593.654 250.662 592.376 250.662C591.098 250.662 590.062 251.698 590.062 252.975C590.062 254.253 591.098 255.289 592.376 255.289Z" fill="#F2DA7C"/>
<path d="M599.31 131.253C599.31 131.71 599.175 132.158 598.92 132.538C598.666 132.919 598.305 133.215 597.882 133.39C597.46 133.565 596.994 133.611 596.546 133.522C596.097 133.433 595.685 133.212 595.361 132.889C595.038 132.565 594.817 132.153 594.728 131.704C594.639 131.255 594.685 130.79 594.86 130.368C595.035 129.945 595.331 129.584 595.712 129.329C596.092 129.075 596.539 128.939 596.997 128.939C597.61 128.939 598.199 129.183 598.633 129.617C599.067 130.051 599.31 130.639 599.31 131.253Z" fill="#F2DA7C"/>
<path d="M472.091 503.279C473.368 503.279 474.404 502.243 474.404 500.966C474.404 499.688 473.368 498.652 472.091 498.652C470.813 498.652 469.777 499.688 469.777 500.966C469.777 502.243 470.813 503.279 472.091 503.279Z" fill="#F2DA7C"/>
<g filter="url(#filter7_bi)">
<path d="M583.091 441.181C584.369 441.181 585.405 440.146 585.405 438.868C585.405 437.59 584.369 436.555 583.091 436.555C581.814 436.555 580.778 437.59 580.778 438.868C580.778 440.146 581.814 441.181 583.091 441.181Z" fill="#36FFE7" fill-opacity="0.4"/>
</g>
<path d="M339.025 4.38126C339.026 4.83989 338.891 5.28855 338.637 5.67024C338.383 6.05192 338.021 6.34941 337.597 6.52492C337.173 6.70042 336.707 6.74601 336.257 6.6559C335.808 6.56579 335.395 6.34405 335.071 6.01884C334.748 5.69363 334.529 5.27963 334.441 4.82944C334.353 4.37925 334.402 3.91318 334.579 3.49044C334.757 3.0677 335.057 2.70736 335.44 2.45521C335.823 2.20306 336.272 2.07048 336.731 2.0743C337.34 2.07937 337.923 2.32446 338.352 2.75637C338.782 3.18828 339.024 3.77215 339.025 4.38126Z" fill="#F2DA7C"/>
<path d="M4.62286 433.446C4.62413 433.904 4.48937 434.352 4.23566 434.734C3.98195 435.115 3.62071 435.413 3.19774 435.589C2.77476 435.765 2.30908 435.811 1.85973 435.722C1.41038 435.633 0.997589 435.412 0.67367 435.088C0.34975 434.764 0.129291 434.352 0.0402334 433.902C-0.0488241 433.453 -0.00246993 432.987 0.173421 432.564C0.349311 432.141 0.646819 431.78 1.02824 431.526C1.40965 431.273 1.85781 431.138 2.3159 431.139C2.92722 431.141 3.51302 431.384 3.94529 431.817C4.37756 432.249 4.62116 432.835 4.62286 433.446Z" fill="#F2DA7C"/>
<path d="M622.153 199.408C622.153 200.679 621.776 201.922 621.07 202.979C620.364 204.035 619.36 204.859 618.186 205.345C617.012 205.832 615.72 205.959 614.473 205.711C613.227 205.463 612.082 204.851 611.183 203.952C610.284 203.054 609.672 201.909 609.424 200.662C609.176 199.416 609.304 198.124 609.79 196.949C610.276 195.775 611.1 194.772 612.157 194.065C613.213 193.359 614.456 192.982 615.727 192.982C617.431 192.982 619.066 193.659 620.271 194.865C621.476 196.07 622.153 197.704 622.153 199.408V199.408Z" stroke="#F2DA7C" stroke-width="1.23454" stroke-miterlimit="10"/>
<path d="M553.992 488.741C553.992 490.011 553.615 491.254 552.909 492.311C552.203 493.367 551.2 494.191 550.025 494.677C548.851 495.164 547.559 495.291 546.313 495.043C545.066 494.795 543.921 494.183 543.022 493.284C542.124 492.386 541.512 491.241 541.264 489.994C541.016 488.748 541.143 487.456 541.629 486.281C542.116 485.107 542.939 484.104 543.996 483.397C545.053 482.691 546.295 482.314 547.566 482.314C549.27 482.314 550.905 482.991 552.11 484.197C553.315 485.402 553.992 487.036 553.992 488.741V488.741Z" stroke="#F2DA7C" stroke-width="1.23454" stroke-miterlimit="10"/>
<path d="M285.246 7.61992C285.246 8.89087 284.869 10.1333 284.163 11.19C283.457 12.2468 282.453 13.0705 281.279 13.5568C280.105 14.0432 278.813 14.1705 277.566 13.9225C276.32 13.6746 275.175 13.0625 274.276 12.1638C273.377 11.2651 272.765 10.1201 272.518 8.87358C272.27 7.62704 272.397 6.33498 272.883 5.16077C273.37 3.98656 274.193 2.98294 275.25 2.27684C276.307 1.57073 277.549 1.19385 278.82 1.19385C280.524 1.19385 282.159 1.87088 283.364 3.076C284.569 4.28112 285.246 5.91562 285.246 7.61992Z" stroke="#F2DA7C" stroke-width="1.23454" stroke-miterlimit="10"/>
</g>
<path style="mix-blend-mode:overlay" d="M366.047 500.964H110.797C103.806 500.964 99.1405 495.296 100.368 488.304L126.715 338.885C127.949 331.894 134.619 326.232 141.604 326.232H396.86C403.845 326.232 408.517 331.894 407.283 338.885L380.936 488.304C379.703 495.296 373.039 500.964 366.047 500.964Z" fill="url(#paint2_linear)"/>
<path opacity="0.3" d="M348.889 488.357H93.6395C86.6479 488.357 81.9826 482.695 83.2164 475.704L109.563 326.285C110.797 319.293 117.461 313.625 124.452 313.625H379.702C386.694 313.625 391.359 319.293 390.125 326.285L363.779 475.704C362.564 482.695 355.881 488.357 348.889 488.357Z" fill="#568E4C"/>
<defs>
<filter id="filter0_bi" x="157.415" y="3.27374" width="86.9536" height="82.8307" filterUnits="userSpaceOnUse" color-interpolation-filters="sRGB">
<feFlood flood-opacity="0" result="BackgroundImageFix"/>
<feGaussianBlur in="BackgroundImage" stdDeviation="8.88852"/>
<feComposite in2="SourceAlpha" operator="in" result="effect1_backgroundBlur"/>
<feBlend mode="normal" in="SourceGraphic" in2="effect1_backgroundBlur" result="shape"/>
<feColorMatrix in="SourceAlpha" type="matrix" values="0 0 0 0 0 0 0 0 0 0 0 0 0 0 0 0 0 0 127 0" result="hardAlpha"/>
<feOffset dy="5"/>
<feComposite in2="hardAlpha" operator="arithmetic" k2="-1" k3="1"/>
<feColorMatrix type="matrix" values="0 0 0 0 1 0 0 0 0 1 0 0 0 0 1 0 0 0 0.25 0"/>
<feBlend mode="normal" in2="shape" result="effect2_innerShadow"/>
</filter>
<filter id="filter1_bi" x="464.047" y="398.33" width="77.8248" height="71.4951" filterUnits="userSpaceOnUse" color-interpolation-filters="sRGB">
<feFlood flood-opacity="0" result="BackgroundImageFix"/>
<feGaussianBlur in="BackgroundImage" stdDeviation="8.88852"/>
<feComposite in2="SourceAlpha" operator="in" result="effect1_backgroundBlur"/>
<feBlend mode="normal" in="SourceGraphic" in2="effect1_backgroundBlur" result="shape"/>
<feColorMatrix in="SourceAlpha" type="matrix" values="0 0 0 0 0 0 0 0 0 0 0 0 0 0 0 0 0 0 127 0" result="hardAlpha"/>
<feOffset dy="5"/>
<feComposite in2="hardAlpha" operator="arithmetic" k2="-1" k3="1"/>
<feColorMatrix type="matrix" values="0 0 0 0 1 0 0 0 0 1 0 0 0 0 1 0 0 0 0.25 0"/>
<feBlend mode="normal" in2="shape" result="effect2_innerShadow"/>
</filter>
<filter id="filter2_bi" x="515.91" y="41.9402" width="70.846" height="78.7565" filterUnits="userSpaceOnUse" color-interpolation-filters="sRGB">
<feFlood flood-opacity="0" result="BackgroundImageFix"/>
<feGaussianBlur in="BackgroundImage" stdDeviation="8.88852"/>
<feComposite in2="SourceAlpha" operator="in" result="effect1_backgroundBlur"/>
<feBlend mode="normal" in="SourceGraphic" in2="effect1_backgroundBlur" result="shape"/>
<feColorMatrix in="SourceAlpha" type="matrix" values="0 0 0 0 0 0 0 0 0 0 0 0 0 0 0 0 0 0 127 0" result="hardAlpha"/>
<feOffset dy="5"/>
<feComposite in2="hardAlpha" operator="arithmetic" k2="-1" k3="1"/>
<feColorMatrix type="matrix" values="0 0 0 0 1 0 0 0 0 1 0 0 0 0 1 0 0 0 0.25 0"/>
<feBlend mode="normal" in2="shape" result="effect2_innerShadow"/>
</filter>
<filter id="filter3_bi" x="511.344" y="15.9593" width="85.5618" height="67.3246" filterUnits="userSpaceOnUse" color-interpolation-filters="sRGB">
<feFlood flood-opacity="0" result="BackgroundImageFix"/>
<feGaussianBlur in="BackgroundImage" stdDeviation="8.88852"/>
<feComposite in2="SourceAlpha" operator="in" result="effect1_backgroundBlur"/>
<feBlend mode="normal" in="SourceGraphic" in2="effect1_backgroundBlur" result="shape"/>
<feColorMatrix in="SourceAlpha" type="matrix" values="0 0 0 0 0 0 0 0 0 0 0 0 0 0 0 0 0 0 127 0" result="hardAlpha"/>
<feOffset dy="5"/>
<feComposite in2="hardAlpha" operator="arithmetic" k2="-1" k3="1"/>
<feColorMatrix type="matrix" values="0 0 0 0 1 0 0 0 0 1 0 0 0 0 1 0 0 0 0.25 0"/>
<feBlend mode="normal" in2="shape" result="effect2_innerShadow"/>
</filter>
<filter id="filter4_bi" x="16.7347" y="319.632" width="61.9652" height="72.2598" filterUnits="userSpaceOnUse" color-interpolation-filters="sRGB">
<feFlood flood-opacity="0" result="BackgroundImageFix"/>
<feGaussianBlur in="BackgroundImage" stdDeviation="8.88852"/>
<feComposite in2="SourceAlpha" operator="in" result="effect1_backgroundBlur"/>
<feBlend mode="normal" in="SourceGraphic" in2="effect1_backgroundBlur" result="shape"/>
<feColorMatrix in="SourceAlpha" type="matrix" values="0 0 0 0 0 0 0 0 0 0 0 0 0 0 0 0 0 0 127 0" result="hardAlpha"/>
<feOffset dy="5"/>
<feComposite in2="hardAlpha" operator="arithmetic" k2="-1" k3="1"/>
<feColorMatrix type="matrix" values="0 0 0 0 1 0 0 0 0 1 0 0 0 0 1 0 0 0 0.25 0"/>
<feBlend mode="normal" in2="shape" result="effect2_innerShadow"/>
</filter>
<filter id="filter5_bi" x="14.305" y="297.559" width="71.5722" height="62.5436" filterUnits="userSpaceOnUse" color-interpolation-filters="sRGB">
<feFlood flood-opacity="0" result="BackgroundImageFix"/>
<feGaussianBlur in="BackgroundImage" stdDeviation="8.88852"/>
<feComposite in2="SourceAlpha" operator="in" result="effect1_backgroundBlur"/>
<feBlend mode="normal" in="SourceGraphic" in2="effect1_backgroundBlur" result="shape"/>
<feColorMatrix in="SourceAlpha" type="matrix" values="0 0 0 0 0 0 0 0 0 0 0 0 0 0 0 0 0 0 127 0" result="hardAlpha"/>
<feOffset dy="5"/>
<feComposite in2="hardAlpha" operator="arithmetic" k2="-1" k3="1"/>
<feColorMatrix type="matrix" values="0 0 0 0 1 0 0 0 0 1 0 0 0 0 1 0 0 0 0.25 0"/>
<feBlend mode="normal" in2="shape" result="effect2_innerShadow"/>
</filter>
<filter id="filter6_bi" x="34.7894" y="123.78" width="40.1809" height="40.1808" filterUnits="userSpaceOnUse" color-interpolation-filters="sRGB">
<feFlood flood-opacity="0" result="BackgroundImageFix"/>
<feGaussianBlur in="BackgroundImage" stdDeviation="8.88852"/>
<feComposite in2="SourceAlpha" operator="in" result="effect1_backgroundBlur"/>
<feBlend mode="normal" in="SourceGraphic" in2="effect1_backgroundBlur" result="shape"/>
<feColorMatrix in="SourceAlpha" type="matrix" values="0 0 0 0 0 0 0 0 0 0 0 0 0 0 0 0 0 0 127 0" result="hardAlpha"/>
<feOffset dy="5"/>
<feComposite in2="hardAlpha" operator="arithmetic" k2="-1" k3="1"/>
<feColorMatrix type="matrix" values="0 0 0 0 1 0 0 0 0 1 0 0 0 0 1 0 0 0 0.25 0"/>
<feBlend mode="normal" in2="shape" result="effect2_innerShadow"/>
</filter>
<filter id="filter7_bi" x="563.001" y="418.778" width="40.1808" height="40.1808" filterUnits="userSpaceOnUse" color-interpolation-filters="sRGB">
<feFlood flood-opacity="0" result="BackgroundImageFix"/>
<feGaussianBlur in="BackgroundImage" stdDeviation="8.88852"/>
<feComposite in2="SourceAlpha" operator="in" result="effect1_backgroundBlur"/>
<feBlend mode="normal" in="SourceGraphic" in2="effect1_backgroundBlur" result="shape"/>
<feColorMatrix in="SourceAlpha" type="matrix" values="0 0 0 0 0 0 0 0 0 0 0 0 0 0 0 0 0 0 127 0" result="hardAlpha"/>
<feOffset dy="5"/>
<feComposite in2="hardAlpha" operator="arithmetic" k2="-1" k3="1"/>
<feColorMatrix type="matrix" values="0 0 0 0 1 0 0 0 0 1 0 0 0 0 1 0 0 0 0.25 0"/>
<feBlend mode="normal" in2="shape" result="effect2_innerShadow"/>
</filter>
<linearGradient id="paint0_linear" x1="178.386" y1="277.356" x2="479.717" y2="277.356" gradientUnits="userSpaceOnUse">
<stop stop-color="white"/>
<stop offset="0.01" stop-color="#FEFEFE"/>
<stop offset="0.26" stop-color="#E1E1E1"/>
<stop offset="0.51" stop-color="#CDCDCD"/>
<stop offset="0.76" stop-color="#C1C1C1"/>
<stop offset="1" stop-color="#BDBDBD"/>
</linearGradient>
<linearGradient id="paint1_linear" x1="81641.1" y1="16257.5" x2="67356" y2="55401.2" gradientUnits="userSpaceOnUse">
<stop stop-color="white"/>
<stop offset="0.01" stop-color="#FEFEFE"/>
<stop offset="0.26" stop-color="#E1E1E1"/>
<stop offset="0.51" stop-color="#CDCDCD"/>
<stop offset="0.76" stop-color="#C1C1C1"/>
<stop offset="1" stop-color="#BDBDBD"/>
</linearGradient>
<linearGradient id="paint2_linear" x1="157052" y1="77761.9" x2="129374" y2="162076" gradientUnits="userSpaceOnUse">
<stop stop-color="white"/>
<stop offset="0.01" stop-color="#FEFEFE"/>
<stop offset="0.26" stop-color="#E1E1E1"/>
<stop offset="0.51" stop-color="#CDCDCD"/>
<stop offset="0.76" stop-color="#C1C1C1"/>
<stop offset="1" stop-color="#BDBDBD"/>
</linearGradient>
<clipPath id="clip0">
<rect width="626.445" height="544.809" fill="white"/>
</clipPath>
</defs>
</svg>
